<svg xmlns="http://www.w3.org/2000/svg" viewBox="0 0 228.22 31.31"><defs><style>.cls-1{fill:#fff;stroke:#000;stroke-linecap:round;stroke-linejoin:round;stroke-width:2px;}</style></defs><g id="レイヤー_2" data-name="レイヤー 2"><g id="レイヤー_3" data-name="レイヤー 3"><path class="cls-1" d="M8.79,11.17c-1.59.75-3.33,1.48-4.92,2.07l-.26-.13L2.19,9.28,2.25,9C4.86,8.1,7.17,7.17,8.92,6.38c.07-1.65.13-3.33.2-5.08l.26-.23,4.43,0,.19.26c-.1,1.55-.23,3-.33,4.39a2.14,2.14,0,0,1,1.26,2c0,.89-.33,1.72-1.55,3.37l0,.46A12.29,12.29,0,0,1,20.9,8.82c5.65,0,9.24,3.5,9.24,8.88S27,26.64,20.84,28.16c-.66.17-.9.17-1.26-.23l-3.4-3.53c5.74-.69,8.81-2.74,8.85-7.1a4,4,0,0,0-4.23-4.25c-1.81,0-4.59.89-7.59,3.17,0,3.46.1,7.09.36,11.51A2.37,2.37,0,0,1,11,30.31c-1.32,0-2.08-.83-2.48-2.35a10.49,10.49,0,0,0-2.8-4.09q-.6.84-1.29,2H4.1l-3.1-3,0-.33c3.11-4.09,5-6.37,7.73-9.8Zm-.6,11.91c.2.07.53,0,.53-.66,0-.86,0-2,0-2.81-.7.86-1.52,2.05-2.15,3A16.36,16.36,0,0,0,8.19,23.08Z"/><path class="cls-1" d="M35.81,28.66C37.5,22.39,39,17,40.47,11.63c-1.68.2-3.33.36-5,.46l-.26-.23-.33-4,.23-.27c2.44-.2,4.59-.43,6.6-.69.5-1.85,1-3.8,1.55-5.74l.3-.17,4.52.69.23.3c-.42,1.35-.85,2.84-1.22,4.16,1.32-.23,2.64-.5,3.86-.76l.27.13.3,4.13-.24.26c-1.78.33-3.66.66-5.51,1C44,17,42.42,23,40.73,29.78l-.29.13-4.49-1Zm11-3,2.41-3,.33,0c1.65,1.79,3.2,2.25,7,2.25a32.31,32.31,0,0,0,6-.53l.26.13v4.62l-.2.27a43.41,43.41,0,0,1-6.23.36c-5.78,0-7.63-1.35-9.54-3.66Zm3.1-10,.3-4.06.23-.29c1.65-.13,3.27-.2,4.82-.2a45,45,0,0,1,6.27.4l.23.26-.33,4.09-.3.2c-2.24-.2-4.42-.33-6.76-.33-1.36,0-2.74.07-4.23.17Z"/><path class="cls-1" d="M73,1.69l4.65,0,.26.23c-.16,4.09-.33,6.89-.49,10.29-.13,2.88-.33,6.57-.33,9.15,0,2.37,1.12,3.43,3.1,3.43,3.8,0,8.09-3,10.89-8.09L94,20.57a.77.77,0,0,1,.1,1.06c-3.26,5.18-8.45,8.22-13.5,8.22s-8.38-2.35-8.38-7.92c0-4.59.23-7.66.33-10.67.1-2.57.27-5.47.27-9.34Z"/><path class="cls-1" d="M104.32,2.62l4.56.62.2.27a30.73,30.73,0,0,1-1.52,7.16,30.27,30.27,0,0,0-1.22,7.66,16.13,16.13,0,0,0,.19,3.33c.1.43.43.46.93,0a27,27,0,0,0,1.68-2.15l1,.5a22.5,22.5,0,0,0-1.55,7,2.17,2.17,0,0,1-2.28,2.44c-1.32,0-2.11-.69-2.87-2s-1.65-3.89-1.65-8.65a46.26,46.26,0,0,1,1.45-10,27.31,27.31,0,0,0,.86-5.87ZM128.19,27a51.44,51.44,0,0,1-7.76.53c-6.63,0-8.38-3.33-9.18-7l.17-.3L115,18.66l.3.1c.63,3.1,1.91,4.09,6.33,4.06a39.08,39.08,0,0,0,6.18-.7l.29.2.3,4.42ZM113.8,6c1.08,0,2.14.07,3.16.07a52.61,52.61,0,0,0,9.31-.8l.23.2.2,4.16-.2.27a49.46,49.46,0,0,1-9.54.82c-1,0-2.08,0-3.13-.07l-.23-.29V6.21Z"/><path class="cls-1" d="M134.78,16.25l-2.11-4.33.1-.29c9-4.19,15-6.17,19.31-6.17,6.1,0,10.16,3.59,10.16,9.73a11.1,11.1,0,0,1-6.7,10,30.24,30.24,0,0,1-9.9,2.27c-.53,0-.69,0-.89-.33l-2.64-4.42a31,31,0,0,0,10.13-1.88c3.3-1.32,4.52-3.27,4.52-6.37,0-2.54-1.65-4.19-4.95-4.23-3.5,0-8.41,1.79-16.7,6.08Z"/><path class="cls-1" d="M168.28,4.3l4.65.17.23.23c-.3,3.66-.39,6.93-.39,8.84a23.93,23.93,0,0,0,.75,6.54c.37,1.28.8,2.24,1.52,2.24.89,0,2-1.78,2.78-4.82l3.3,4.16a.69.69,0,0,1,.09.83c-1.31,3.43-3.46,5.9-6.13,5.9-2.15,0-4-1.51-5.35-4.19a24.79,24.79,0,0,1-1.92-10.26c0-2.68.07-5.84.24-9.44ZM183.92,10l3.17-2.54.36-.06A24.79,24.79,0,0,1,196.2,18.1l-.1.29L191.91,21l-.33-.1c-1.78-4.55-4.29-8.15-7.72-10.56Z"/><path class="cls-1" d="M201.05,12.68,200,8.33l.13-.27C209.3,5.82,216.66,4.3,226,2.62l.3.16,1,4.39-.23.3c-3.67.26-6.87.92-8.88,2.57-3.07,2.48-4.79,5.48-4.79,8.58a4.19,4.19,0,0,0,3.21,4.46,27.85,27.85,0,0,0,7.88.73l.23.23-.26,5-.26.2a26.09,26.09,0,0,1-10.43-1.52c-3.27-1.38-5.32-4.15-5.32-8.64a12.55,12.55,0,0,1,4.43-9.31c-3.24.79-6.77,1.72-11.46,3Z"/></g></g></svg>