<svg id="body.svg" xmlns="http://www.w3.org/2000/svg" width="812" height="1336" viewBox="0 0 812 1336">
  <defs>
    <style>
      .cls-1 {
        fill: #2d1d0c;
        stroke-linecap: round;
      }

      .cls-1, .cls-2, .cls-3, .cls-4 {
        stroke: #000;
        stroke-width: 10px;
        fill-rule: evenodd;
      }

      .cls-1, .cls-4 {
        stroke-linejoin: round;
      }

      .cls-2 {
        fill: #7dded8;
      }

      .cls-3, .cls-4 {
        fill: #fff;
      }
    </style>
  </defs>
  <path id="hair" class="cls-1" d="M2375.43,386.48S2310.05,636.5,2232.98,627.117s28.65,34.751,147.2,57.533,271.63-28.472,271.63-28.472S2822.8,206.632,2375.43,386.48Z" transform="translate(-2015 -339)"/>
  <path id="hip" class="cls-2" d="M2728.3,870.933s141.14,439.417-10.61,483.927-244.15,4.29-244.15,4.29c-0.94-.43-369.45-400.425-304.28-451.743,141.24-111.233,376.73,29.365,376.73,29.365Z" transform="translate(-2015 -339)"/>
  <g id="wear">
    <path id="wear-2" data-name="wear" class="cls-3" d="M2576.11,513.544s-33.89,45.689,22.01,46.015,185.07,40.668,200.49,103.78c8.25,33.713-98.27,146.48-51.02,246.034,90.1,189.857-89.01,172.347-157.22,193.747-146.43,45.94-310.85,6.77-335.57,3.82s0.25-197.2-2.21-280.113-6.45-238.607,46.16-249.364,117.95,8.655,117.95,8.655-12.6-50.784.7-63.454,82.32-75.189,158.7-9.621" transform="translate(-2015 -339)"/>
    <path id="シェイプ_16" data-name="シェイプ 16" class="cls-3" d="M2411.89,587.394s61.17,80.731,167-26.455" transform="translate(-2015 -339)"/>
  </g>
  <g id="nee02">
    <path id="シェイプ_14_のコピー" data-name="シェイプ 14 のコピー" class="cls-3" d="M2338.3,1441.37s41.61,76.14,43.74,122.86,63.43,141.16,130.51,91.92c64.11-47.07,32.97-91.46,15.97-150.46s-44.5-172.95-107.74-150.52S2345.61,1386.16,2338.3,1441.37Z" transform="translate(-2015 -339)"/>
    <path id="シェイプ_12" data-name="シェイプ 12" class="cls-2" d="M2333.76,1509.41s-446.2-479.82-274.37-624.718c0,0,98.87-69.547,154.17,26.259S2466.8,1448.67,2466.8,1448.67,2458.74,1544.62,2333.76,1509.41Z" transform="translate(-2015 -339)"/>
  </g>
  <g id="nee">
    <path id="シェイプ_14" data-name="シェイプ 14" class="cls-3" d="M2697.1,1367.07s40.13,76.98,77.81,104.85,82.05,131.37,3.66,159.36c-74.92,26.76-94.48-23.82-134.08-70.85s-119.06-133.47-65.11-173.26S2647.09,1342.27,2697.1,1367.07Z" transform="translate(-2015 -339)"/>
    <path id="シェイプ_13" data-name="シェイプ 13" class="cls-2" d="M2541.52,1466.48s-544.54-457.18-360.53-567.357,308.69,165.637,362.95,265.017,153.68,267.66,153.68,267.66S2655.79,1591.49,2541.52,1466.48Z" transform="translate(-2015 -339)"/>
  </g>
  <g id="arm02">
    <path id="シェイプ_10" data-name="シェイプ 10" class="cls-4" d="M2337.63,1084.99s-17.67-23.31-75.68,13.76-112.42,63.42-94.41,78.59,39.59-13.49,39.59-13.49-57.04,52.2-55.94,74.69,5.03,39.6,29.2,42.89,71.57-24.85,92.26-46.23,85.6-42.03,105.38-59.51C2407.07,1150.03,2406.69,1080.32,2337.63,1084.99Z" transform="translate(-2015 -339)"/>
    <path id="シェイプ_9" data-name="シェイプ 9" class="cls-3" d="M2604.25,717.494s-49.37,179.37-38.99,242.224c0,0-270.51,94.992-265.83,152.982s27.11,82.42,27.11,82.42,294.95-63.48,341.69-142.79,127.99-328.752,132.17-383.956" transform="translate(-2015 -339)"/>
  </g>
</svg>
