<svg id="chair.svg" xmlns="http://www.w3.org/2000/svg" width="878.03" height="764" viewBox="0 0 878.03 764">
  <defs>
    <style>
      .cls-1 {
        fill: #fff;
      }

      .cls-1, .cls-3 {
        stroke: #333;
        stroke-linecap: round;
        stroke-linejoin: round;
        stroke-width: 10px;
      }

      .cls-1, .cls-2, .cls-3 {
        fill-rule: evenodd;
      }

      .cls-2 {
        fill: #eee;
      }

      .cls-3 {
        fill: none;
      }
    </style>
  </defs>
  <path id="シェイプ_27" data-name="シェイプ 27" class="cls-1" d="M2127,1679.75l179-250.92,39-57.98,50-111.96-47-146.95-74-19-21-77.97,15-63.981L2483,917l64,2,85,6,49,24.992,52,94.971,3,70.97,23,135.96,8,84.97,59,66.98,38,92.97,83,127.96,48,55.23Z" transform="translate(-2122 -912)"/>
  <path id="シェイプ_32" data-name="シェイプ 32" class="cls-2" d="M2348,1106l50-24,86-5,27,16,67,96,17,68,7,113,113,134,126,201-705-22,208-302,57-117Z" transform="translate(-2122 -912)"/>
  <path id="シェイプ_27_のコピー" data-name="シェイプ 27 のコピー" class="cls-3" d="M2127,1679.75l179-250.92,39-57.98,50-111.96-47-146.95-74-19-21-77.97,15-63.981L2483,917l64,2,85,6,49,24.992,52,94.971,3,70.97,23,135.96,8,84.97,59,66.98,38,92.97,83,127.96,48,55.23Z" transform="translate(-2122 -912)"/>
  <path id="シェイプ_28" data-name="シェイプ 28" class="cls-3" d="M2396,1076.95l87-5" transform="translate(-2122 -912)"/>
  <path id="シェイプ_29" data-name="シェイプ 29" class="cls-3" d="M2516,1025.96l-3,63.98,63,90.97,20,69.98,9,118.96,108,127.96,70,115.96" transform="translate(-2122 -912)"/>
  <path id="シェイプ_30" data-name="シェイプ 30" class="cls-3" d="M2356,1468.82l108,1,100,19.99,50-9.99" transform="translate(-2122 -912)"/>
  <path id="シェイプ_31" data-name="シェイプ 31" class="cls-3" d="M2444,1270l59,8,24,30" transform="translate(-2122 -912)"/>
  <path id="シェイプ_33" data-name="シェイプ 33" class="cls-3" d="M2686,1066l-34,27,28,80" transform="translate(-2122 -912)"/>
</svg>
