<svg id="cloud.svg" xmlns="http://www.w3.org/2000/svg" width="3352" height="876" viewBox="0 0 3352 876">
  <defs>
    <style>
      .cls-1 {
        fill: #eee;
        fill-rule: evenodd;
      }

      .cls-2 {
        fill: none;
      }
    </style>
  </defs>
  <path id="シェイプ_36" data-name="シェイプ 36" class="cls-1" d="M2887.61,1154.97a46.709,46.709,0,0,0-6.41.5,35.6,35.6,0,0,0-52.92-25.51,58.262,58.262,0,0,0-90.06-12.64,40.294,40.294,0,0,0-47.31,20.73,72.789,72.789,0,0,0-18.21,8.55,47.539,47.539,0,0,0-62.24,45.25,50.249,50.249,0,0,0,.28,5.09,33.283,33.283,0,1,0,16.03,64.18,30.885,30.885,0,0,0,41.55,6.23,73.657,73.657,0,0,0,61.62,12.85,39.2,39.2,0,0,0,57.36-15.34,59.49,59.49,0,0,0,96.1-17.32c1.39,0.12,2.79.21,4.2,0.21A46.39,46.39,0,1,0,2887.61,1154.97Z" transform="translate(0 -411)"/>
  <path id="シェイプ_36_のコピー" data-name="シェイプ 36 のコピー" class="cls-1" d="M1460.61,894.975a46.71,46.71,0,0,0-6.41.5,35.6,35.6,0,0,0-52.92-25.51,58.257,58.257,0,0,0-90.06-12.637,40.278,40.278,0,0,0-47.31,20.722,73.182,73.182,0,0,0-18.21,8.552,47.545,47.545,0,0,0-62.24,45.248,50.26,50.26,0,0,0,.28,5.093,33.283,33.283,0,1,0,16.03,64.181,30.885,30.885,0,0,0,41.55,6.23,73.657,73.657,0,0,0,61.62,12.85,39.2,39.2,0,0,0,57.36-15.34,59.49,59.49,0,0,0,96.1-17.32c1.39,0.122,2.79.213,4.2,0.213A46.389,46.389,0,1,0,1460.61,894.975Z" transform="translate(0 -411)"/>
  <path id="シェイプ_34" data-name="シェイプ 34" class="cls-1" d="M2159,503.852a41.381,41.381,0,0,0-60.32-36.841,41.983,41.983,0,0,0,.21-4.222,41.4,41.4,0,0,0-71.25-28.718,33.652,33.652,0,0,0-59.42-.088,46.4,46.4,0,0,0-35.71,2.956,49.168,49.168,0,0,0-88.19,3.091,36.222,36.222,0,0,0-50.96,33.117c0,0.518.06,1.027,0.08,1.54a36.233,36.233,0,1,0-15.37,70.591,51.7,51.7,0,0,0,79.23,38.907,41.361,41.361,0,0,0,65.63,4.222,41.364,41.364,0,0,0,57.81-6.129,36.081,36.081,0,0,0,36.22,8.166,39.6,39.6,0,0,0,61.98-12.114,22.535,22.535,0,0,0,8.99-6.291,30.123,30.123,0,0,0,48.91-31.523A41.4,41.4,0,0,0,2159,503.852Z" transform="translate(0 -411)"/>
  <path id="シェイプ_34_のコピー_2" data-name="シェイプ 34 のコピー 2" class="cls-1" d="M587,692.852a41.384,41.384,0,0,0-60.323-36.841c0.138-1.385.212-2.794,0.212-4.222a41.4,41.4,0,0,0-71.248-28.718,33.652,33.652,0,0,0-59.42-.088,46.4,46.4,0,0,0-35.71,2.956,49.167,49.167,0,0,0-88.188,3.091,36.223,36.223,0,0,0-50.962,33.117c0,0.518.058,1.027,0.081,1.54a36.233,36.233,0,1,0-15.369,70.591A51.694,51.694,0,0,0,285.3,773.185a41.364,41.364,0,0,0,65.633,4.222,41.369,41.369,0,0,0,57.814-6.129,36.081,36.081,0,0,0,36.22,8.166,39.6,39.6,0,0,0,61.975-12.114,22.47,22.47,0,0,0,8.987-6.291,30.121,30.121,0,0,0,48.916-31.523A41.4,41.4,0,0,0,587,692.852Z" transform="translate(0 -411)"/>
  <ellipse id="楕円形_2" data-name="楕円形 2" class="cls-2" cx="3265" cy="378" rx="103" ry="107"/>
  <ellipse id="楕円形_2_のコピー" data-name="楕円形 2 のコピー" class="cls-2" cx="2" cy="393" rx="103" ry="107"/>
</svg>
