<svg xmlns="http://www.w3.org/2000/svg" viewBox="0 0 127.07 33.12"><defs><style>.cls-1{fill:#fff;stroke:#000;stroke-linecap:round;stroke-linejoin:round;stroke-width:2px;}</style></defs><g id="レイヤー_2" data-name="レイヤー 2"><g id="レイヤー_3" data-name="レイヤー 3"><path class="cls-1" d="M23.25,11.92c-.14.33-.33.93-.57,1.52,3.7,1.32,6.24,4.26,6.24,8.16,0,4.58-2.54,9.3-10.79,10.52L15.52,28c6.54-.73,8.48-4,8.48-6.64a4.26,4.26,0,0,0-2.67-4,24.68,24.68,0,0,1-6.63,9.51c.23.79.46,1.55.72,2.31l-4.55,1.35c-.13-.33-.23-.72-.36-1.12a11.89,11.89,0,0,1-4.79,1.12C3.18,30.57,1,29.05,1,25.42c0-4.19,3.37-8.64,8-10.86.07-1.22.17-2.47.3-3.66H8.72c-1.91,0-4.45-.16-6.07-.23L2.52,6.15a54.24,54.24,0,0,0,6.37.46h.79l.13-1.32a15.69,15.69,0,0,0,.1-2.18L15,3.24c-.23.76-.37,1.36-.5,1.92s-.2.89-.26,1.35A52,52,0,0,0,25.13,5.09l0,4.52a89.64,89.64,0,0,1-11.52,1.16c-.06.79-.13,1.58-.2,2.38a20.82,20.82,0,0,1,4.56-.5h.2a17.21,17.21,0,0,0,.26-1.85ZM9.52,25a47.82,47.82,0,0,1-.6-5.64c-2,1.52-3.27,3.6-3.27,5,0,.89.33,1.38,1.29,1.38A5.84,5.84,0,0,0,9.52,25Zm7.39-8.31a15.65,15.65,0,0,0-3.6.59,41.79,41.79,0,0,0,.3,4.46A18.64,18.64,0,0,0,16.91,16.68Z"/><path class="cls-1" d="M58.29,11c-1.15.69-2.34,1.32-3.66,2A85.77,85.77,0,0,0,46,17.5c-2.54,1.65-4.36,3.4-4.36,5.55s2.08,3.17,6.28,3.17A56.29,56.29,0,0,0,58.69,25l-.07,5.71A61.6,61.6,0,0,1,48,31.5c-6.74,0-11.92-1.82-11.92-7.86,0-3.73,2.31-6.4,5.32-8.68-1.52-2.8-3-6.14-4.49-9.57l5-2a68.27,68.27,0,0,0,3.93,8.71c2.41-1.39,4.88-2.67,6.3-3.5a22.8,22.8,0,0,0,3.4-2.21Z"/><path class="cls-1" d="M79.77,4.1c-.23,1-.49,2.21-.69,3.14S78.72,9,78.52,9.88c.86-.07,1.62-.1,2.21-.1,3.76,0,6.24,1.78,6.24,6.67,0,3.82-.43,9.07-1.82,12-1.12,2.34-3,3.17-5.71,3.17a19.07,19.07,0,0,1-4-.47l-.86-5.21a20.73,20.73,0,0,0,4,.69,2.22,2.22,0,0,0,2.21-1.25c.82-1.62,1.22-5.35,1.22-8.39,0-2.37-1-2.67-3-2.67-.36,0-.92,0-1.51.07C76.18,19.45,73.73,27.3,71,31.79l-5.18-2.08C68.88,25.52,71,19.42,72.21,15l-2,.3c-1.06.13-2.94.39-4,.59l-.43-5.31a37,37,0,0,0,3.8,0c1,0,2.31-.13,3.76-.23a33.38,33.38,0,0,0,.63-6.83ZM91.39,7.6a59.86,59.86,0,0,1,5.28,11.75l-5,2.34c-.79-3.79-3-9.6-5.35-12.64l2.88-1.18a41.75,41.75,0,0,0-2.25-4L90,2.58c.83,1.23,2,3.37,2.58,4.53Zm2.18-.79A37.71,37.71,0,0,0,91,2.25L94.06,1a46.31,46.31,0,0,1,2.61,4.49Z"/><path class="cls-1" d="M126.07,15.13a37.75,37.75,0,0,1-4.75,1.22c.76,1.58,1.62,3.36,2.58,5.18l-2.31,3c-1.92-.4-5.32-.92-7.56-1.19l.43-3.76,3.1.26c-.43-.95-.79-1.85-1.12-2.64a87.67,87.67,0,0,1-14.23.17l-.2-4.52a68.31,68.31,0,0,0,12.64.13l-.19-.5-.86-2a67.22,67.22,0,0,1-11.09-.16l-.27-4.49a65.46,65.46,0,0,0,9.41.43,20.31,20.31,0,0,0-1.48-2.58l5.64-1a23.49,23.49,0,0,0,.89,3.07,40.11,40.11,0,0,0,6.11-1.49l.82,4.39a44.43,44.43,0,0,1-5.28,1.29c.2.49.43,1,.63,1.45l.39.92a37.08,37.08,0,0,0,5.78-1.58Zm-18,5.74a10,10,0,0,0-.76,3.1c0,1.75,1.16,3,5.15,3a52,52,0,0,0,9-.73l-.17,5a55.71,55.71,0,0,1-8.68.66c-6.3,0-10.23-2.11-10.23-6.93a16.7,16.7,0,0,1,.83-4.62Z"/></g></g></svg>