<svg id="eye.svg" xmlns="http://www.w3.org/2000/svg" width="180" height="101" viewBox="0 0 180 101">
  <defs>
    <style>
      .cls-1 {
        fill: #fff;
        stroke: #000;
        stroke-width: 10px;
      }

      .cls-1, .cls-2 {
        fill-rule: evenodd;
      }
    </style>
  </defs>
  <path id="楕円形_1" data-name="楕円形 1" class="cls-1" d="M2373.62,250.142c6.81,1.527,9.68,14.473,6.4,28.916s-11.45,24.913-18.27,23.386-9.68-14.473-6.4-28.916S2366.8,248.615,2373.62,250.142Z" transform="translate(-2349 -245)"/>
  <path id="楕円形_1_のコピー" data-name="楕円形 1 のコピー" class="cls-1" d="M2516.23,288.537c6.81,1.527,9.68,14.473,6.4,28.916s-11.45,24.913-18.26,23.386-9.69-14.473-6.41-28.916S2509.42,287.009,2516.23,288.537Z" transform="translate(-2349 -245)"/>
  <path id="楕円形_1_のコピー_2" data-name="楕円形 1 のコピー 2" class="cls-2" d="M2517.22,286.155c5.83,1.249,8.35,11.522,5.63,22.946s-9.63,19.673-15.45,18.424-8.34-11.522-5.63-22.946S2511.4,284.907,2517.22,286.155Z" transform="translate(-2349 -245)"/>
  <path id="楕円形_1_のコピー_3" data-name="楕円形 1 のコピー 3" class="cls-2" d="M2374.57,246.291c5.83,1.249,8.35,11.522,5.63,22.946s-9.63,19.673-15.45,18.424-8.34-11.522-5.63-22.946S2368.75,245.043,2374.57,246.291Z" transform="translate(-2349 -245)"/>
</svg>
