<svg xmlns="http://www.w3.org/2000/svg" width="633.97" height="475.969" viewBox="0 0 633.97 475.969">
  <defs>
    <style>
      .cls-1 {
        fill: #ddd;
      }
    </style>
  </defs>
  <path id="fukidashi.svg" class="cls-1" d="M1991.51,270.005c115.74,21.568,194.25,117.667,175.36,214.643s-128.05,158.105-243.79,136.537-194.26-117.668-175.36-214.643S1875.76,248.436,1991.51,270.005ZM1794.4,409.266c66.01,12.3,109.74,72.492,97.67,134.441S1816.7,645.9,1750.69,633.6s-109.74-72.493-97.67-134.441S1728.39,396.965,1794.4,409.266Zm3.08-129.791c66.01,12.3,109.74,72.492,97.66,134.441s-75.37,102.2-141.38,89.895-109.74-72.493-97.67-134.441S1731.46,267.174,1797.48,279.475Zm139.16-64.236c66.01,12.3,109.74,72.492,97.67,134.441s-75.37,102.2-141.39,89.895-109.74-72.493-97.67-134.442S1870.62,202.937,1936.64,215.239Zm166.56,28.866c66.02,12.3,109.75,72.492,97.67,134.441s-75.37,102.2-141.38,89.895S1949.75,395.948,1961.82,334,2037.19,231.8,2103.2,244.105Zm82.13,131.544c66.01,12.3,109.74,72.493,97.67,134.442s-75.37,102.195-141.38,89.894-109.75-72.492-97.67-134.441S2119.32,363.348,2185.33,375.649Zm-116.34,78.266c66.01,12.3,109.74,72.492,97.67,134.441s-75.38,102.2-141.39,89.895-109.74-72.493-97.67-134.441S2002.97,441.614,2068.99,453.915Zm-134.98,8.526c66.02,12.3,109.75,72.492,97.67,134.441s-75.37,102.2-141.38,89.9-109.74-72.493-97.67-134.441S1868,450.14,1934.01,462.441Z" transform="translate(-1651.03 -213.031)"/>
</svg>
