<?xml version="1.0" encoding="utf-8"?>
<!-- Generator: Adobe Illustrator 26.0.2, SVG Export Plug-In . SVG Version: 6.00 Build 0)  -->
<svg version="1.1" id="レイヤー_1" xmlns="http://www.w3.org/2000/svg" xmlns:xlink="http://www.w3.org/1999/xlink" x="0px"
	 y="0px" viewBox="0 0 100 100" style="enable-background:new 0 0 100 100;" xml:space="preserve">
<style type="text/css">
	.st0{fill:#00EEEE;}
	.st1{fill:#EEEEEE;}
</style>
<circle class="st0" cx="50" cy="50.1" r="43"/>
<path class="st1" d="M61.4,28.1c-7.2,0-13.1,5.9-13.1,13.1c0,0.1,0,0.1,0,0.1c-7.6-1-14.4-4.8-19-10.5c-0.7-0.9-2-1-2.8-0.3
	c-0.2,0.2-0.3,0.3-0.5,0.5c-1.1,1.9-1.8,4.2-1.8,6.6c0,2.1,0.6,4.1,1.5,5.9c-0.9,0.2-1.6,1-1.6,2v0.1c0,3.9,1.8,7.2,4.5,9.6
	c-0.6,0.5-0.8,1.3-0.5,2.1c1.1,3.5,3.7,6.2,7,7.7c-2.6,1.2-5.4,2.1-8.5,2.1c-0.8,0-1.6,0-2.4-0.1c-1.1-0.1-2.1,0.6-2.2,1.7
	c-0.1,0.8,0.3,1.5,0.9,1.9C28.1,74,34.3,76,41,76c10.7,0,19.2-4.5,24.9-10.9s8.6-14.7,8.6-22.6c0-0.2,0-0.5,0-0.7
	c1.9-1.6,3.8-3.3,5.2-5.4c0.6-0.9,0.4-2.2-0.6-2.8c-0.5-0.3-1.1-0.4-1.7-0.2c0.3-0.6,0.8-1.2,1-1.9c0.3-1.1-0.2-2.2-1.3-2.5
	c-0.5-0.2-1.1-0.1-1.6,0.2c-1.7,1-3.7,1.7-5.8,2.2C67.5,29.5,64.6,28.1,61.4,28.1z"/>
<path d="M50,4C24.6,4,4,24.6,4,50s20.6,46,46,46s46-20.6,46-46S75.4,4,50,4z M50,8c23.2,0,42,18.8,42,42S73.2,92,50,92S8,73.2,8,50
	S26.8,8,50,8z M61.4,28.1c-7.2,0-13.1,5.9-13.1,13.1c0,0.1,0,0.1,0,0.1c-7.6-1-14.4-4.8-19-10.5c-0.7-0.9-2-1-2.8-0.3
	c-0.2,0.2-0.3,0.3-0.5,0.5c-1.1,1.9-1.8,4.2-1.8,6.6c0,2.1,0.6,4.1,1.5,5.9c-0.9,0.2-1.6,1-1.6,2v0.1c0,3.9,1.8,7.2,4.5,9.6
	c-0.6,0.5-0.8,1.3-0.5,2.1c1.1,3.5,3.7,6.2,7,7.7c-2.6,1.2-5.4,2.1-8.5,2.1c-0.8,0-1.6,0-2.4-0.1c-1.1-0.1-2.1,0.6-2.2,1.7
	c-0.1,0.8,0.3,1.5,0.9,1.9C28.1,74,34.3,76,41,76c10.7,0,19.2-4.5,24.9-10.9s8.6-14.7,8.6-22.6c0-0.2,0-0.5,0-0.7
	c1.9-1.6,3.8-3.3,5.2-5.4c0.6-0.9,0.4-2.2-0.6-2.8c-0.5-0.3-1.1-0.4-1.7-0.2c0.3-0.6,0.8-1.2,1-1.9c0.3-1.1-0.2-2.2-1.3-2.5
	c-0.5-0.2-1.1-0.1-1.6,0.2c-1.7,1-3.7,1.7-5.8,2.2C67.5,29.5,64.6,28.1,61.4,28.1z M61.4,32.1c2.6,0,5,1.1,6.6,2.9
	c0.5,0.5,1.2,0.7,1.8,0.6c0.3-0.1,0.5-0.3,0.8-0.3c0,0-0.1,0.1-0.1,0.1c-0.9,0.6-1.3,1.8-0.7,2.7c0.4,0.6,1,1,1.7,1
	c-0.1,0.1-0.2,0.3-0.4,0.4c-0.5,0.4-0.9,1-0.8,1.7c0,0.4,0,0.9,0,1.3c0,6.8-2.6,14.3-7.6,19.9C57.9,68.1,50.6,72,41,72
	c-3.3,0-6.4-0.7-9.4-1.7c3.7-0.8,7.2-2.1,10-4.3c0.9-0.7,1-1.9,0.3-2.8c-0.4-0.5-0.9-0.7-1.5-0.8c-2.8-0.1-5-1.7-6.6-3.7
	c0.6-0.1,1.2-0.1,1.8-0.2c1.1-0.3,1.7-1.4,1.4-2.5c-0.2-0.7-0.8-1.3-1.5-1.4c-3.3-0.7-5.9-3.1-6.8-6.3c0.9,0.2,1.6,0.7,2.5,0.7
	c1.1,0,2-0.8,2.1-1.9c0-0.7-0.3-1.3-0.9-1.7c-2.4-1.6-4-4.4-4-7.6c0-0.7,0.4-1.2,0.5-1.8c5.7,5.6,13.2,9.4,21.8,9.8
	c1.1,0.1,2-0.8,2.1-1.9c0-0.2,0-0.4-0.1-0.6c-0.2-0.7-0.2-1.3-0.2-2.1C52.3,36.2,56.3,32.1,61.4,32.1z"/>
</svg>
