<svg xmlns="http://www.w3.org/2000/svg" viewBox="0 0 292.9 99.2"><g id="レイヤー_2" data-name="レイヤー 2"><g id="base"><path d="M26.43,80.8l-2.79-5.6.13-.39c12-5.43,19.9-8,25.53-8,8.08,0,13.45,4.67,13.45,12.62,0,6.72-4.67,11.17-8.86,13a40.46,40.46,0,0,1-13.1,3c-.7,0-.91,0-1.18-.43l-3.49-5.73a41.47,41.47,0,0,0,13.4-2.44c4.37-1.71,6-4.23,6-8.25,0-3.3-2.18-5.44-6.55-5.48-4.62,0-11.13,2.31-22.08,7.87Z"/><path d="M97.89,98.43A137.86,137.86,0,0,0,76.41,85.25a4.57,4.57,0,0,1-2.92-4.19c0-1.75,1-3.08,2.44-4.49a227.33,227.33,0,0,1,18.25-15h.48l4.54,4.92v.43a194.12,194.12,0,0,0-17,12.32,1.46,1.46,0,0,0-.66,1.11,1.19,1.19,0,0,0,.74.77,146.75,146.75,0,0,1,20.26,11.55l0,.43-4.32,5.31Z"/><path d="M125,61.08l5.89.39.31.34c-.26,2-.44,3-.7,4.19s-.65,2.18-1.13,3.77a7.18,7.18,0,0,1,6.11-3.3c2.49,0,4.41.81,6.33,3.38s2.57,6.08,2.57,10.83c0,8.85-3.31,14.93-13.62,18.35a4.51,4.51,0,0,1-.83.17,1.25,1.25,0,0,1-.83-.39l-4.49-4.32c10.26-2.48,12.66-6.58,12.66-14.33a18.46,18.46,0,0,0-.83-6.5A2.48,2.48,0,0,0,133.77,72c-1.66,0-3.76,2.18-4.58,4.32a12,12,0,0,0-.92,5.22,15,15,0,0,0,1.13,5.3l-.21.43-5.5,1.28-.44-.17a16.71,16.71,0,0,1-1.75-7.44,48.33,48.33,0,0,1,1.66-10.53,68.27,68.27,0,0,0,1.44-9Z"/><path d="M160.05,96.89c2.22-8.13,4.19-15.06,6.15-22.08-2.22.26-4.41.48-6.59.6l-.35-.3-.44-5.17.31-.34c3.23-.26,6.07-.56,8.73-.9.65-2.4,1.35-4.92,2-7.45l.39-.21,6,.9.31.38C176,64.08,175.46,66,175,67.71c1.74-.3,3.49-.64,5.1-1l.35.17.39,5.35-.3.34c-2.36.43-4.85.86-7.29,1.24-2.31,7.91-4.45,15.74-6.68,24.51l-.39.17-5.94-1.28ZM174.63,93l3.18-3.94.44,0c2.18,2.31,4.23,2.91,9.21,2.91a43.41,43.41,0,0,0,7.95-.69l.34.17v6l-.26.35a58.16,58.16,0,0,1-8.25.47c-7.64,0-10.08-1.76-12.61-4.75Zm4.1-13,.39-5.26.31-.38c2.18-.17,4.32-.26,6.37-.26a62.46,62.46,0,0,1,8.3.51l.3.35-.44,5.3-.39.26c-3-.26-5.85-.43-8.95-.43-1.79,0-3.62.08-5.58.21Z"/><path d="M205.18,65.32l6.16.21.3.3c-.39,4.75-.52,9-.52,11.47a30.33,30.33,0,0,0,1,8.47c.48,1.66,1,2.91,2,2.91,1.18,0,2.66-2.31,3.67-6.25l4.36,5.39a.87.87,0,0,1,.13,1.07c-1.74,4.45-4.58,7.66-8.12,7.66-2.83,0-5.32-2-7.07-5.44-1.35-2.69-2.53-7.48-2.53-13.3,0-3.47.09-7.57.31-12.24Zm20.69,7.44,4.19-3.29.48-.09A32.46,32.46,0,0,1,242.11,83.2l-.13.38L236.44,87l-.44-.12c-2.36-5.91-5.67-10.57-10.21-13.69Z"/><path d="M270.53,93.08a4.22,4.22,0,0,1-8.43,0,4.22,4.22,0,0,1,8.43,0Zm-.79-7.61h-6.85V62.58h6.85Z"/><path d="M4,7.83A3.92,3.92,0,1,1,4,0C6.81,0,8.29,1.75,8.29,4.41c0,1.84-.78,3.29-1.79,5.17l-2.66,5H.39Zm9.82,0a3.92,3.92,0,1,1,0-7.83c2.84,0,4.33,1.75,4.33,4.41,0,1.84-.79,3.29-1.79,5.17l-2.67,5H10.22Z"/><path d="M34.57,15.14a84.12,84.12,0,0,1-8.38.77l-.31-.25-.26-5.18.31-.3c3-.13,5.89-.34,8.64-.73l0-7.48.35-.3h5.68l.31.25-.09,6.55c1.83-.38,3.45-.81,5.15-1.28l.35.21.57,5.18-.31.34c-2,.43-3.93.9-5.85,1.24l0,4.15a28.48,28.48,0,0,1,9.16-1.88c7.16,0,10.87,4.4,10.87,9.24,0,6.54-4.54,10-11,10a11.33,11.33,0,0,1-6.24-1.45.66.66,0,0,1-.22-.77l1.36-5.18a11.28,11.28,0,0,0,4.75,1.2c2.54-.09,4.46-1.41,4.46-3.89,0-2.19-1.71-3.73-4.72-3.73a18.91,18.91,0,0,0-8.34,2.31V33.8c0,2.35-1.35,4-4.67,4-2.83,0-10.91-3.73-10.91-8,0-2.61,4.37-7,9.3-9.41Zm.09,11.47c-1.92,1.11-3.19,2.31-3.19,2.91,0,.81,2,1.84,2.67,1.84.39,0,.52-.22.52-.81ZM50.51,10,53.6,5.48l.48-.09a24.46,24.46,0,0,1,10.13,5.86l.05.47L61,16.26l-.48.12a23.76,23.76,0,0,0-9.86-6.07Z"/><path d="M76.78,16.09a4.74,4.74,0,0,0-.35,1.58c0,.94.88,1.07,3.32,1.07.35-2.4.61-4.15.87-5.95-3.05-.17-5.63-.38-8-.68l-.26-.39.35-5,.35-.26a72.53,72.53,0,0,0,8.43.73c.35-2.35.69-4.75,1-6.89l.39-.21,6.07.68.3.39c-.26,1.79-.61,3.85-1,5.94,2-.08,4-.29,6-.55l.35.26.35,5-.39.35c-2.23.25-4.76.42-7.33.51-.35,2-.66,4-.92,5.9a77,77,0,0,0,9-1.11l.39.26.57,5-.26.34c-3.76.6-7.2,1-10.39,1.24a34.11,34.11,0,0,0-.44,4.8c0,2.14,1,3,4.33,3C95.33,32.13,97,31,97,29.26c0-.9-.44-2.27-2.49-4.45l5.2-1.71a.88.88,0,0,1,1,.26c3.18,3.29,3.71,5.3,3.71,7.27,0,4.28-3.58,7.44-14.8,7.44-8.56,0-11-3.37-11-7.74A46.18,46.18,0,0,1,79,24.38c-5.8-.29-8.2-1.41-8.2-4.83a8.05,8.05,0,0,1,.78-3.46l.35-.18,4.67-.17Z"/><path d="M119,1.5l6.15,0,.35.3c-.22,5.3-.44,8.94-.65,13.35-.18,3.72-.44,8.51-.44,11.85,0,3.08,1.48,4.45,4.1,4.45,5,0,10.7-3.85,14.41-10.48l3.8,5a1,1,0,0,1,.13,1.37C142.57,34.05,135.71,38,129,38S118,35,118,27.72c0-5.94.3-9.92.43-13.82.13-3.33.35-7.1.35-12.1Z"/><path d="M165.66,32c.87.05,1.7.05,2.27.05,11.87,0,16.28-3.6,16.28-7.79,0-2.4-1.88-4.71-6.59-4.71A14.79,14.79,0,0,0,168.76,23a53.87,53.87,0,0,0-7.25,7.4h-.44l-4.45-3.67,0-.48c7.07-7.52,12.09-13,17.24-18.43-2.84.64-6.68,1.37-10.7,2l-.39-.26-.87-5.48.26-.34c6-.85,11.61-1.67,17-2.56a5.24,5.24,0,0,1,.87-.09c2.32,0,4.11,1.54,4.11,3.38a3,3,0,0,1-.83,2.22c-3.93,3.85-6,5.86-9,8.82a13,13,0,0,1,4.89-1c7,0,12.27,3.94,12.27,9.88,0,9.29-7.25,13.31-21,13.74-.69,0-.91-.09-1.22-.56Z"/><path d="M201.41,4.88l6.15.21.31.3c-.4,4.75-.53,9-.53,11.47a30.27,30.27,0,0,0,1,8.47c.48,1.66,1,2.91,2,2.91,1.18,0,2.67-2.31,3.67-6.25l4.37,5.39a.9.9,0,0,1,.13,1.07c-1.75,4.45-4.59,7.66-8.12,7.66-2.84,0-5.33-2-7.07-5.44-1.36-2.69-2.54-7.48-2.54-13.3,0-3.47.09-7.57.31-12.24Zm20.69,7.44L226.29,9l.48-.09a32.53,32.53,0,0,1,11.57,13.82l-.14.38-5.54,3.38-.44-.12c-2.35-5.91-5.67-10.57-10.21-13.69Z"/><path d="M245.58,7.83a3.92,3.92,0,1,1,0-7.83c2.84,0,4.32,1.75,4.32,4.41,0,1.84-.78,3.29-1.79,5.17l-2.66,5H242Zm9.82,0a3.92,3.92,0,1,1,0-7.83c2.84,0,4.32,1.75,4.32,4.41,0,1.84-.78,3.29-1.79,5.17l-2.66,5h-3.45Z"/><path d="M265.66,26.12a37.15,37.15,0,0,0,7.94-8c-1.53.13-3.12.16-4.62.16l-.19-.19-.13-3.84.22-.19c2.39,0,4.75-.06,7.11-.22a30.56,30.56,0,0,0,1.5-4.19l.26-.16,4.37.63.19.22c-.38,1.09-.77,2-1.12,2.94,1.6-.25,3.19-.53,4.79-.91l.28.16.32,3.68-.19.29c-2.33.46-4.94.87-7.59,1.18A30.52,30.52,0,0,1,277,20.18a9.56,9.56,0,0,1,3-.4,3.89,3.89,0,0,1,3.89,3c2-.75,4.27-1.53,6.76-2.35l.32.13,2,3.84-.16.28c-3.22.82-6,1.63-8.33,2.47.07,1.22.1,2.75.13,4.25l-.22.19-4.21.16-.26-.19V29c-1.94.9-3,1.78-3,2.84s1.28,1.34,4.12,1.38a58,58,0,0,0,8.32-.66l.32.19.29,4.15-.19.25c-3,.25-5.71.41-9.45.41-6.44,0-8.13-2.66-8.13-5.34,0-3,2.59-5.1,5.55-6.76.58-.31,1.21-.62,1.91-.93A1.39,1.39,0,0,0,278,23.34a6.22,6.22,0,0,0-3.64,1.09,45.94,45.94,0,0,0-5.54,5.07l-.32,0-2.81-3.07Z"/></g></g></svg>