<svg id="ningen2.svg" xmlns="http://www.w3.org/2000/svg" width="581" height="824.22" viewBox="0 0 581 824.22">
  <defs>
    <style>
      .cls-1, .cls-4 {
        fill: #2d1d0c;
      }

      .cls-1, .cls-2, .cls-3, .cls-4, .cls-5, .cls-6, .cls-7 {
        stroke: #000;
        stroke-width: 10px;
        fill-rule: evenodd;
      }

      .cls-1, .cls-2, .cls-5, .cls-6 {
        stroke-linecap: round;
      }

      .cls-1, .cls-2, .cls-7 {
        stroke-linejoin: round;
      }

      .cls-2, .cls-3, .cls-5, .cls-7 {
        fill: #eee;
      }

      .cls-6 {
        fill: #0ee;
      }
    </style>
  </defs>
  <path id="parts" class="cls-1" d="M1546.32,660.912s-33.64-20.7-17.98-60.968,50.77-82.876,109.91-92.95c96.34-16.411,140.67-4.805,188.61,44.045,83.36,84.94,95.49,95.732,95.18,95.88l46.96,9s-71.17,41.461-143.89,33.982S1531.89,684.622,1546.32,660.912Z" transform="translate(-1393 -495)"/>
  <path id="parts-2" data-name="parts" class="cls-2" d="M1576.36,802.058s-29.07,44.59-47.58,48.513-50.1-3.9-57.37,23.394,12.14,69.3,56.01,44.638,95.87-87.373,118.32-114.614,23.04-83.965,23.04-83.965Z" transform="translate(-1393 -495)"/>
  <path id="parts-3" data-name="parts" class="cls-3" d="M1582.29,708.75s-20.65,45.3-42.96-16.973-11.53-68.366,14.99-89.857c66.87-54.189,119.81,7.1,113.91,33.946S1582.29,708.75,1582.29,708.75Z" transform="translate(-1393 -495)"/>
  <path id="parts-4" data-name="parts" class="cls-4" d="M1630.26,554.968l-14.99,61.967L1516.34,678.9s-25.13-61.258,22.99-104.944" transform="translate(-1393 -495)"/>
  <path id="parts-5" data-name="parts" class="cls-5" d="M1656.24,776.641L1645.25,740.7s-159.87,107.763-244.82,57.907c0,0-17.25-50.883,39.97-102.835,0,0-5.2-27.555,10.99-30.951s38.04-12.9,47.97,1-8,49.921-8,49.921l-8.99,20.966,78.94-27.955,32.98-36.941s10.78-16.195,21.98-26.957c17.07-16.408,171.82-75.776,267.8,73.882s56.44,181.605,33.97,204.673S1636.73,874.6,1656.24,776.641Z" transform="translate(-1393 -495)"/>
  <path id="parts-6" data-name="parts" class="cls-6" d="M1521.34,1068.7s-93.43-99.71-56.96-156.921,189.86-134.928,189.86-134.928,43.91-40.585,114.91-35.981S1891.3,791,1899.06,818.828s47.9,99.589,32.97,142.924-127.9,97.948-127.9,97.948l43.96,94.95-52.96,75.96s-97.56-110.27-117.91-142.92,48.97-126.937,48.97-126.937-38.08-11.544-73.95-8-67.95,7-67.95,7l42.97,39.978S1599.62,1076.27,1521.34,1068.7Z" transform="translate(-1393 -495)"/>
  <path id="parts-7" data-name="parts" class="cls-5" d="M1778.15,1295.81s-7.93-41.21,17.98-86.86,50.6-67.73,72.95-59.9c49.03,17.17-17.39,78.13-19.99,104.83S1852.27,1346,1778.15,1295.81Z" transform="translate(-1393 -495)"/>
  <path id="parts-8" data-name="parts" class="cls-7" d="M1547.32,1153.06s-92.05,10.08-43.97-59.37,58.56-97.787,86.94-98.956,65.87,3.579,42.97,51.646c0,0-17.31,16.19-34.98,46.32S1577.8,1147.06,1547.32,1153.06Z" transform="translate(-1393 -495)"/>
</svg>
