<svg xmlns="http://www.w3.org/2000/svg" viewBox="0 0 145 25.48"><defs><style>.cls-1{fill:#ccc;}</style></defs><g id="レイヤー_2" data-name="レイヤー 2"><g id="レイヤー_6" data-name="レイヤー 6"><path class="cls-1" d="M0,22l3.33-4.06a10,10,0,0,0,6,2.51c2.18,0,3.2-.83,3.2-2.15S11.16,16.37,9,15.48L5.91,14.16c-2.58-1-5-3.17-5-6.73C.92,3.3,4.62,0,9.84,0a11.43,11.43,0,0,1,8,3.23l-2.93,3.7A8,8,0,0,0,9.84,5.05C8,5.05,6.9,5.78,6.9,7.1S8.45,9,10.63,9.84l3.07,1.22c3,1.22,4.85,3.26,4.85,6.73,0,4.09-3.43,7.69-9.37,7.69A13.75,13.75,0,0,1,0,22Z"/><path class="cls-1" d="M21.52,12.61C21.52,4.55,26.07,0,32.77,0S44,4.59,44,12.61,39.47,25.48,32.77,25.48,21.52,20.66,21.52,12.61Zm16.5,0c0-4.76-2-7.56-5.25-7.56s-5.21,2.8-5.21,7.56,2,7.79,5.21,7.79S38,17.39,38,12.61Z"/><path class="cls-1" d="M61.84,25l-4.52-8.65H54.48V25h-5.9V.46h9c5.24,0,9.6,1.78,9.6,7.73,0,3.59-1.68,5.9-4.22,7.09L68.45,25Zm-7.36-13.3h2.64c2.81,0,4.3-1.22,4.3-3.53s-1.49-3.07-4.3-3.07H54.48Z"/><path class="cls-1" d="M85.21,25l-4.52-8.65H77.85V25H71.94V.46h9c5.25,0,9.6,1.78,9.6,7.73,0,3.59-1.68,5.9-4.22,7.09L91.81,25Zm-7.36-13.3h2.64c2.8,0,4.29-1.22,4.29-3.53s-1.49-3.07-4.29-3.07H77.85Z"/><path class="cls-1" d="M99.56,16.34,92.17.46h6.27l2,5.45c.66,1.85,1.28,3.56,2,5.48h.13c.69-1.92,1.35-3.63,2-5.48l2-5.45h6.17l-7.42,15.88V25H99.56Z"/><path class="cls-1" d="M114.84,21.82a3.5,3.5,0,1,1,7,0,3.5,3.5,0,1,1-7,0Z"/><path class="cls-1" d="M126.42,21.82a3.5,3.5,0,1,1,7,0,3.5,3.5,0,1,1-7,0Z"/><path class="cls-1" d="M138,21.82a3.5,3.5,0,1,1,7,0,3.5,3.5,0,1,1-7,0Z"/></g></g></svg>