<svg xmlns="http://www.w3.org/2000/svg" viewBox="0 0 512 140.35"><defs><style>.cls-1{fill:#eee;}</style></defs><g id="レイヤー_2" data-name="レイヤー 2"><g id="_9" data-name="9"><path class="cls-1" d="M493.8,88V75.61L471.06,72.1V98.27H457.41V84.62H429V68.38h-6.82V61.87H411.91v6.51H398.26V78.62H404v6.82h-5.69V95.67H375.51v6.83H365.1V90.57H353.47V57.62l-22.55,2.19V96.18h-9.46V75.08H311.27V41.62L306.91,38l-9.46,1.46.73,5.09-11.64,4.36v32H274.18V59.81H257.44V53.26H238.53v54.56h-4.24l-1.48-8.4a.13.13,0,0,1,0-.06s0,0,0-.06l-.91-5.21,1.51-8.21.88.18.18-.89-2.31-.89h-1.88V81.43l-1.78-1.78h-.89l-5.13-43.1,7.75-5,1.71-.13v-.27l-1.93,0,0-.06-7-2.9.38-1.08.32.08.09-.79-.57-.13.8-1.05.25.06.1-.83-.45-.11.75-.71.08-.69.26-.24.24-.74.12,0,.08-.62,2.23-6.8-.89-1.18-4.18-.79V9.23h-.67V8l.13-1.14h-.59V4.16a8.15,8.15,0,0,0-2.18-.63V0h-.65V3.49c-1.29,0-2.24.35-2.24.67v2.6H216V9.69h-.6v2.67h-.71l-4.61,1,.18,1.47.47-.1.37,2.24-.45.11.15,1.35.66-.16.48,2.29-.47.12.14,1.22.51-.14,1.21.93-.17,0,.1.87.36-.08.93.67-1,.23.09.83.36-.09,1,1-.84.19.09.79.28-.07.61.75L208,31.62h-.12l.05,0-.23.12h-1.76v.27H208l6.76,4.36-1,8.82,0,0,0,0-3.89,34.37h-1.33V68l-8-5.82-9.46-.73v36l-6.54,1.09V79.29h-8V50.2l-4.72-.37V46.56l-4-1.46-8,1.1v4.36l-12.74.73V86.57H137.6L138,74.2h-7.64V68H107.77l-6.37,5.09H90.18V59.47H71.63V55.65H68.9V51.82H65.08v3.83H63.44V86.2H58.53V70.92H47.62v12H44.68v9.22L34.12,98V86.89H11.38v19.34H0v34.12H512V88ZM215.4,28.21l.24.3-.11,1L214,31.26l-.23-.27Zm-1.59,3.41v.16H210.3l2.93-.13.12.07,0-.08Zm-.26-.25.08-.14.11.13Zm1.57-3.21-1.53,2.61-1-1.16-.21.17,1,1.24-.22.37-4.6.21Zm-6.63,3.89h.13l3.2,1.86-.11.15.21.16.13-.17,2.78,1.61-.05.45Zm6.11,9.37.47,1.27-.72,1.22Zm-.45,4.5.75,1.18-1,1.3Zm-.37,3.68.94,1.48-1.25,1.62Zm-.39,3.9h0Zm0,.29,1,1.4-1.26,1.62ZM212.94,58l1,1.45-1.28,1.64Zm-.42,4.24,1.16,1.64-1.53,2Zm.27-.17h2.26l-1.16,1.54Zm-.73,4.74h.06l1.15,1.59-1.55,1.83Zm.45,0h2.12l-1.14,1.34Zm2.42,3.86h-3.17l1.71-2Zm-3.3.47h3.29L213.18,73l-1.56-1.77Zm0,4,1.57-1.68,1.49,1.68Zm3.12.73L213,77.58l-1.63-1.73Zm-3.15-4.22L213,73.2l-1.73,1.85Zm-.8,8,.36-3.58,1.65,1.75L211,79.64Zm.65,0L213,78.05l1.49,1.59Zm3.68,0h-.17l-1.71-1.82,1.88-1.89v3.71Zm0-4.52h0l-1.69-1.91,1.71-1.83v3.74Zm0-4.79-1.42-2,1.37-1.6h0v3.56Zm0-4.3h-2.68l1.45-1.91,1.18,1.66,0,0Zm0-.74-1-1.44,1-1.35Zm0-3.79h-2.42l1.42-1.8,1,1.51Zm0-.87-.8-1.2.8-1Zm0-2.74-1,1.26-1-1.45h1.95Zm0-1h-1.71l1.12-1.43.59.87Zm0-1.12-.39-.57.39-.5Zm0-1.59-.58.74-1-1.43h1.56v.69Zm0-1.29h-1.39l1.2-1.53.19.3V52.9Zm0-2.3-.17.21-1-1.58h1.18Zm0-1.9h-1l1-1.31,0,0V48.7Zm0-1.88-.9-1.42,0-.24h.88Zm0-2.26h-.77l.77-1.3Zm0-2.7-.42-1.16h0l.43-4.33v5.48ZM215,34l-1.4-1.81-.21.17,1.57,2-.11,1-2.65-1.54,1.2-1.53-.21-.16L212,33.7l-.21-.11.07,0-.54-1.51-.25.09.46,1.29-2.37-1.38h4.66l1.38.22,0,0Zm.88,45.64h-.45V71l0,0,0,0V42.87h0l0,0v-.16h0V33.1l0,.08.11-1.13h.37V79.66Zm0-47.88h-.26l.24-.25h0ZM219,.32h0V3.5h0Zm-.33,24.42a2.49,2.49,0,1,1,2.49-2.49A2.49,2.49,0,0,1,218.62,24.74Zm2.59,54.92h-.42V30.85h.37l.05.53Zm10,14.93.68,3.86a.3.3,0,0,1-.14.3.28.28,0,0,1-.15,0h-.06l-1.08-4.19Zm-5.43.81,4,3.77h-4.41V95.81Zm-.39,0V95l.2.18Zm-2.05-27.22L222,66.77h2.6ZM225,66.77H225l.38,3.48-1.8-1.81Zm-1.55,1.92,1.94,1.94h-3.5Zm2.1,2.41v.11L223.83,73l-1.89-1.87Zm.06.52.37,3.44-1.88-1.86Zm-1.73,1.81,1.7,1.69h-3.32Zm1.95,2.42L224,77.59l-1.86-1.74Zm.25.2.39,3.59h-.21l-2-1.83Zm.21,18.54-.06.06-.06-.06Zm3.47,5.38-4.28,3.76V100Zm1,.2.1.38-4.83,4a.25.25,0,0,1-.15.06l-.13,0Zm-.44-1.7-3.88-3.64.22-.24h.47l3,3.08Zm-1-3.88.65,2.53-2.45-2.53Zm-1.69-14.93h-.16l-2.51-20.58Zm-2.64-13.79-1.63-2,1.24-1.68Zm-.51-4.81L223,59.36l1.1-1.44ZM224,56.8l-1.31-1.65,1-1.36Zm-.36-3.3Zm-.1-.86-1.22-1.58.9-1.44ZM223,48.3l-.89-1.21.64-1.1Zm-.63-12-.08-.74L228,32.65ZM224.25,32l2.28-.17-.79,1.55.12.06L223,34.88l1.11-2.64,1.29,1.28.18-.19Zm.24-.63,2.27,0-.08.17-2.14.15Zm1.57,2,.78-1.54,2.64-.19Zm.93-1.82.07-.13h1.6Zm2.31-.38-2.11,0,.3-.57Zm-2.41,0-2.44,0,0-.15h0l.26-1.12-.25-.06-.27,1.11-.33-.08L223,29.1l4.24,1.37Zm-4-2.69,3.94,1.63-4-1.29,0-.06Zm-.22.63.8,1.64-1.26-.32Zm-.13,3.26,1.38-.27-1.21,2.84.15.06-.57.29-.22-1.9Zm-.72,4.62.4,3.77-.4,1Zm0,5.67.48-1.22.27,2.54-.75-1.19Zm0,.73.78,1.22h-.78Zm0,1.82h.88l0,.3-.8,1.35-.12-.17V45.16Zm0,2.49.15-.26,1,1.31h-1.12V47.65Zm0,1.58h1.23l-1,1.56-.26-.34V49.23Zm0,1.74.08.1-.08.14Zm0,.84.28-.47,1.21,1.56h-1.49Zm0,1.69h1.63l-1,1.37-.61-.78Zm0,1.27.37.44-.37.5Zm0,1.55.6-.84,1.19,1.42h-1.79v-.58Zm0,1.38h2l-1.08,1.41-1-1.14V57.7Zm0,.77.75.9-.75,1Zm0,2.42,1-1.27,1.59,1.88h-2.56v-.61Zm0,1.14h2.45l-1.17,1.59-1.28-1.56Zm0,.53,1.08,1.33-1.08,1.46Zm0,3.34,1.29-1.76L224.67,66h-2.85V65.9Zm0,1.19,1.36,1.37-1.36,1.71Zm0,4.34,1.79,1.78-1.79,1.88Zm0,8.21V76l2,1.84L222,79.64ZM224,78l1.72,1.6H222.4Zm1.41,29.79v-1l.78,1Zm.92-3.08a.28.28,0,0,1,.11-.25l4.41-3.66,1.54,6-6-2S226.37,104.76,226.36,104.74Zm1.63,3.08-1.48-2a.42.42,0,0,1,0-.1l6.18,2.06,0,.09ZM231.9,100l.1,0h.08a.25.25,0,0,1,.17.2l.65,3.68Z"/></g></g></svg>