<svg xmlns="http://www.w3.org/2000/svg" viewBox="0 0 137.01 33.82"><defs><style>.cls-1{fill:#fff;stroke:#000;stroke-linecap:round;stroke-linejoin:round;stroke-width:2px;}</style></defs><g id="レイヤー_2" data-name="レイヤー 2"><g id="レイヤー_3" data-name="レイヤー 3"><path class="cls-1" d="M5.88,8.92a11.77,11.77,0,0,1-.79,1.59.28.28,0,0,1-.29.16,1.83,1.83,0,0,1-.53-.1L1,9.48A21.59,21.59,0,0,0,3.67,2.39l.27-.17,3.46.86.14.3C7.4,4,7.27,4.6,7.11,5.19H8.46V1.4l.3-.23h3.79l.2.26V5.19H14.2l4.26-.1.23.23V8.79L18.46,9l-4.26-.1H12.75V11H15l4.26-.1.23.24V14.7l-.23.23L15,14.83H12.75v2.11H14.9l3.82-.1.23.23-.09,3.11v1.91l.13,3.2c0,3.1-1.36,3.86-4,3.86-.49,0-.69-.06-.85-.56l-1.06-3.27c.36,0,.66,0,1-.06s.43-.2.43-.73V20.64H12.75v1.25l.13,10.86H8.33l.13-10.86V20.64H6.74v8.68H2.32l.13-5.81V20.18l-.06-3.11.23-.23,3.89.1h2V14.83H5.85l-4.32.1L1.3,14.7V11.17l.23-.24,4.32.1H8.46V8.92Zm18.69-3.5v9.44l.16,9.24H20l.17-9.24V5.42l.23-.23h3.89Zm6.2,21.82c0,3.89-.79,5-5.91,5-.66,0-.69-.06-.86-.39l-2-4.06a30.05,30.05,0,0,0,3.27-.14c.69-.06.89-.26.89-1.05V2.16l.23-.24h4l.23.24V20Z"/><path class="cls-1" d="M44.43,14.17a39.18,39.18,0,0,0,6.9-13.1L51.59,1l4.26,1.32.07.36c-.5,1.46-1.16,3-1.85,4.59h8l4.65-.1L67,7.4v3.83l-.27.23-4.65-.1H57.17v3h4.19l4-.1.27.23v3.79l-.27.24-4-.1H57.17v3.26h4.32l4.13-.1.26.24v3.79l-.26.23-4.13-.1H57.23l.14,6.9H52.42l.16-11.09V11.36H52a42.4,42.4,0,0,1-3.53,5.58.91.91,0,0,1-.63.4.87.87,0,0,1-.49-.27L44.43,14.4V32.62H39.78l.16-10.2V17.9a17.81,17.81,0,0,1-1.72,2.77c-.16.2-.29.3-.42.3s-.27-.13-.37-.33l-1.85-3.93A41.14,41.14,0,0,0,42.42,1.17L42.71,1l4.13,1,.16.3a63.72,63.72,0,0,1-2.57,7.49Z"/><path class="cls-1" d="M89,27.8c0,3.76-1.09,5-6.6,5-.66,0-.73-.06-.86-.39l-1.65-3.86c1.55,0,3-.07,3.53-.14s.89-.26.89-1.05V27H78.65L74.19,27l-.26-.26V24l.26-.2,4.46.1h5.61v-1H75.35L71,23l-.26-.27v-2.8l.26-.2,4.36.1h8.91v-.92H78.68l-4.35.06-.27-.26V15.85l.27-.2,4.35.1h5.58V14.7H79.67l-4.32.1-.2-.27.17-2.8V10.51l-.1-2.68.23-.23,4.22.1h4.59V6.58H76l-4.69.06-.26-.26v-3l.26-.19L76,3.24h8.25V1.43l.3-.26h4l.3.26V3.24h8l5-.09.23.23v3l-.23.23-5-.06h-8V7.7h4.72l4.29-.1.23.23L98,10.51v1.22l.1,2.77-.23.3-4.29-.1H88.82v1.05h4.75l4.92-.1.23.2-.1,3.43v.37l3.69-.07.24.23v3l-.24.23-3.69,0,.16,5.25H94.16V27H88.91ZM79.64,10.51v1.35h4.62V10.51Zm9.18,1.35H93.5V10.51H88.82Zm5.34,7.92v-.92H88.82v.92Zm0,4.09v-1H88.85l0,1Z"/><path class="cls-1" d="M121,10.34l2-.1,1.82,1.55c.3.27.23.7.2,1.22A38.73,38.73,0,0,1,123.33,23a18.9,18.9,0,0,1-6.7,9.31,1,1,0,0,1-.52.23c-.17,0-.3-.1-.5-.27l-2.71-2.67v3.27h-4.42l.17-10.2V18.46a11.69,11.69,0,0,1-1.16,2.28.55.55,0,0,1-.43.33c-.16,0-.29-.13-.36-.37l-1.19-4.22c2.18-4,3.57-9.34,4.42-15.15l.3-.16,3.76.89.17.29c-.37,2.12-.79,4-1.26,5.75V18.43A30.63,30.63,0,0,0,116.53,7.3l-2.17.07-.24-.23V3.61l.24-.23,3.73.1h3.26l4.06-.1.23.23V7.14l-.23.23-4.06-.1h-.72c-.17,1-.37,2.05-.56,3.07Zm-8.09,19a16.31,16.31,0,0,0,6.31-7.46,26,26,0,0,0-2.51-2c-.3.53-.59,1.09-.92,1.62-.2.3-.33.46-.5.46a.44.44,0,0,1-.33-.16l-2-1.95ZM119.14,14c-.3.86-.56,1.72-.89,2.58.69.46,1.39,1,2,1.45a34.75,34.75,0,0,0,.53-4Zm11-9v9.28l.16,10.1h-4.32l.17-10.1V5l.23-.23h3.53ZM136,27.67c0,3.89-.66,5-5.88,5-.66,0-.72-.06-.86-.39l-1.71-4.13c1.19,0,2.57,0,3-.07.7-.06.9-.26.9-1V2l.23-.23h3.92l.24.23V20.44Z"/></g></g></svg>